# Blender 4.4.3
# www.blender.org
mtllib Fire.mtl
o Cube
v 1.000000 -0.989949 -0.989949
v 1.000000 0.989949 0.989949
v -1.000000 -0.989949 -0.989949
v -1.000000 0.989949 0.989949
vn -0.0000 0.7071 -0.7071
vt 1.000000 1.000000
vt 0.000000 0.968750
vt 1.000000 0.968750
vt 0.000000 1.000000
s 1
usemtl Material.001
f 4/1/1 1/2/1 3/3/1
f 4/1/1 2/4/1 1/2/1
o Cube.001
v -1.000000 -1.000000 1.000000
v -1.000000 1.000000 1.000000
v 1.000000 -1.000000 1.000000
v 1.000000 1.000000 1.000000
vn -0.0000 -0.0000 1.0000
vt 1.000000 1.000000
vt 0.000000 0.968750
vt 1.000000 0.968750
vt 0.000000 1.000000
s 1
usemtl Material.001
f 8/5/2 5/6/2 7/7/2
f 8/5/2 6/8/2 5/6/2
o Cube.002
v -1.000000 -1.000000 -1.000000
v -1.000000 1.000000 -1.000000
v -1.000000 -1.000000 1.000000
v -1.000000 1.000000 1.000000
vn -1.0000 -0.0000 -0.0000
vt 1.000000 1.000000
vt 0.000000 0.968750
vt 1.000000 0.968750
vt 0.000000 1.000000
s 1
usemtl Material.001
f 12/9/3 9/10/3 11/11/3
f 12/9/3 10/12/3 9/10/3
o Cube.003
v 1.000000 -1.000000 1.000000
v 1.000000 1.000000 1.000000
v 1.000000 -1.000000 -1.000000
v 1.000000 1.000000 -1.000000
vn 1.0000 -0.0000 -0.0000
vt 1.000000 1.000000
vt 0.000000 0.968750
vt 1.000000 0.968750
vt 0.000000 1.000000
s 1
usemtl Material.001
f 16/13/4 13/14/4 15/15/4
f 16/13/4 14/16/4 13/14/4
o Cube.004
v 1.000000 -1.000000 -1.000000
v 1.000000 1.000000 -1.000000
v -1.000000 -1.000000 -1.000000
v -1.000000 1.000000 -1.000000
vn -0.0000 -0.0000 -1.0000
vt 1.000000 1.000000
vt 0.000000 0.968750
vt 1.000000 0.968750
vt 0.000000 1.000000
s 1
usemtl Material.001
f 20/17/5 17/18/5 19/19/5
f 20/17/5 18/20/5 17/18/5
o Cube.005
v -0.989950 -0.989949 -1.000000
v 0.989949 0.989949 -1.000000
v -0.989949 -0.989949 1.000000
v 0.989950 0.989949 1.000000
vn -0.7071 0.7071 -0.0000
vt 1.000000 1.000000
vt 0.000000 0.968750
vt 1.000000 0.968750
vt 0.000000 1.000000
s 1
usemtl Material.001
f 24/21/6 21/22/6 23/23/6
f 24/21/6 22/24/6 21/22/6
o Cube.006
v -1.000000 -0.989949 0.989950
v -1.000000 0.989949 -0.989949
v 1.000000 -0.989949 0.989949
v 1.000000 0.989949 -0.989950
vn -0.0000 0.7071 0.7071
vt 1.000000 1.000000
vt 0.000000 0.968750
vt 1.000000 0.968750
vt 0.000000 1.000000
s 1
usemtl Material.001
f 28/25/7 25/26/7 27/27/7
f 28/25/7 26/28/7 25/26/7
o Cube.007
v 0.989949 -0.989949 1.000000
v -0.989950 0.989949 1.000000
v 0.989950 -0.989949 -1.000000
v -0.989949 0.989949 -1.000000
vn 0.7071 0.7071 -0.0000
vt 1.000000 1.000000
vt 0.000000 0.968750
vt 1.000000 0.968750
vt 0.000000 1.000000
s 1
usemtl Material.001
f 32/29/8 29/30/8 31/31/8
f 32/29/8 30/32/8 29/30/8
